# xmcd
#
# Track frame offsets:
#	150
#	11383
#	22830
#	33953
#	48461
#	63280
#	80734
#	93299
#	105991
#	123038
#	134306
#	150062
#	166090
#	180234
#	197930
#	210919
#	235428
#	257514
#	272630
#	285401
#	299602
#
# Disc length: 4146 seconds
#
# Revision: 1
# Processed by: cddbd v1.5.2PL0 Copyright (c) Steve Scherf et al.
# Submitted via: audiograbber 1.83.01
#
DISCID=04103015
DTITLE=Stardust - Stardust 028
DYEAR=2001
DGENRE=Country
TTITLE0=Stardust 028 - Johnny Law
TTITLE1=Deep In The Heart Of Dixie  - Troy Cook Jr
TTITLE2=The Panty House Song  - Corinda
TTITLE3=Just One More Song  - Jack Blanchard and Misty Morgan
TTITLE4=Small Town Blues  - Kim Anthony
TTITLE5=Best Mum In The World  - Joy Adams
TTITLE6=Smooth Sailin  - Danny Wear
TTITLE7=For What It´s Worth - Frank Mabry
TTITLE8=For The Good Times  - Michael Apidgian
TTITLE9=Watching You  - Dick Shuey and Barbi Green
TTITLE10=American Dream - Jerri Arnold
TTITLE11=New American Dream  - Brant Miller
TTITLE12=A Fire I Can´t Put Out - Erin Hay
TTITLE13=Forgotton Lullabies - Victoria Boland 
TTITLE14=Living Within Your Love  - Dave Young
TTITLE15=In The Big Inland Sea  - Wilf Motan
TTITLE16=Blow Ye Wind  - Dr Fry´s Texas Medicine Show
TTITLE17=Muddy Hole - Ernest and Wood
TTITLE18=Miracles  - William Earl
TTITLE19=Where Could I Go  - Clint Miller and Jordanaires Del Mccoury Band
TTITLE20=Jesus Walks  - The Whites
EXTD=
EXTT0=
EXTT1=
EXTT2=
EXTT3=
EXTT4=
EXTT5=
EXTT6=
EXTT7=
EXTT8=
EXTT9=
EXTT10=
EXTT11=
EXTT12=
EXTT13=
EXTT14=
EXTT15=
EXTT16=
EXTT17=
EXTT18=
EXTT19=
EXTT20=
PLAYORDER=
